<svg width="36" height="36" viewBox="0 0 36 36" fill="none" xmlns="http://www.w3.org/2000/svg">
<path d="M13.8768 25.6611L9.72948 31.3105C9.02398 32.271 7.80586 32.3615 7.00817 31.5121C6.21048 30.6626 6.13529 29.1959 6.84079 28.2355L10.9881 22.586C11.6936 21.6256 12.9118 21.535 13.7094 22.3845C14.5065 23.2332 14.5817 24.7006 13.8768 25.6611Z" fill="#2F5DCC"/>
<path d="M8.28316 32.6441C7.72151 32.6441 7.15724 32.4072 6.70412 31.9254C5.71878 30.8759 5.62593 29.0566 6.49685 27.8702L10.6442 22.2215C11.5151 21.0343 13.0262 20.9225 14.0115 21.972C14.9975 23.0214 15.0904 24.8408 14.2188 26.0264L10.0714 31.6758C9.60131 32.3166 8.94354 32.6441 8.28316 32.6441ZM12.4331 22.3538C12.0258 22.3538 11.6204 22.5553 11.3301 22.9513L7.18274 28.6C6.64593 29.3313 6.70347 30.4532 7.31089 31.0995C7.91897 31.7467 8.85005 31.6782 9.3862 30.9452L13.5335 25.2958C14.0704 24.5644 14.0128 23.4434 13.4054 22.797C13.1262 22.5002 12.779 22.3538 12.4331 22.3538Z" fill="#472B29"/>
<path d="M17.6665 27.3671L13.5192 33.0165C12.8137 33.977 11.5956 34.0675 10.7979 33.2181C10.0002 32.3686 9.92499 30.9019 10.6305 29.9415L14.7778 24.292C15.4833 23.3316 16.7015 23.241 17.4991 24.0905C18.2968 24.94 18.372 26.4066 17.6665 27.3671Z" fill="#2F5DCC"/>
<path d="M12.0715 34.3517C11.4896 34.3517 10.9345 34.0998 10.4945 33.6314C10.0172 33.1228 9.73273 32.4221 9.6935 31.6553C9.65427 30.8893 9.86546 30.1517 10.2872 29.5762L14.4345 23.9267C14.8569 23.3528 15.4395 23.0096 16.075 22.9623C16.7099 22.9088 17.3239 23.1694 17.8018 23.6772C18.2798 24.185 18.5642 24.8864 18.6035 25.6524C18.6433 26.4184 18.4315 27.1569 18.0098 27.7324L13.8624 33.3818C13.44 33.9557 12.8575 34.299 12.2213 34.3462C12.1716 34.3502 12.1212 34.3517 12.0715 34.3517ZM16.2241 24.059C16.1934 24.059 16.1627 24.0606 16.1313 24.0629C15.7396 24.0921 15.3807 24.3031 15.1204 24.6573L10.9731 30.3067C10.7128 30.6602 10.5827 31.1153 10.6069 31.5876C10.6311 32.06 10.8063 32.4922 11.1006 32.8055C11.3948 33.1181 11.7701 33.2716 12.165 33.2464C12.5574 33.2173 12.9163 33.0063 13.1765 32.652L17.3239 27.0026C17.5841 26.6483 17.7142 26.1933 17.69 25.7209C17.6658 25.2494 17.4906 24.8171 17.1964 24.5038C16.925 24.2157 16.5831 24.059 16.2241 24.059Z" fill="#472B29"/>
<path d="M21.8198 28.637L17.6724 34.2864C16.9669 35.2468 15.7488 35.3374 14.9511 34.4879C14.1534 33.6385 14.0782 32.1718 14.7837 31.2113L18.9311 25.5619C19.6366 24.6014 20.8547 24.5109 21.6524 25.3604C22.4501 26.2098 22.5246 27.6765 21.8198 28.637Z" fill="#2F5DCC"/>
<path d="M16.2261 35.62C15.6644 35.62 15.1002 35.383 14.6471 34.9012C13.6617 33.8518 13.5689 32.0324 14.4398 30.8468L18.5871 25.1974C19.4581 24.0126 20.9684 23.9 21.9544 24.9478C22.9398 25.9965 23.0326 27.8158 22.1617 29.003L18.0144 34.6517C17.5442 35.2925 16.8865 35.62 16.2261 35.62ZM20.3761 25.3304C19.9687 25.3304 19.564 25.532 19.273 25.928L15.1257 31.5774C14.5889 32.308 14.6464 33.4298 15.2538 34.0762C15.8612 34.7233 16.793 34.654 17.3291 33.9219L21.4765 28.2732C22.0126 27.5411 21.9551 26.42 21.3483 25.7737C21.0691 25.4761 20.7219 25.3304 20.3761 25.3304Z" fill="#472B29"/>
<path d="M18.6244 33.3842H34.8666V20.7737H27.0256L9.38226 19.1551L18.6244 33.3842Z" fill="#3A7DFF"/>
<path d="M34.9019 20.8722H29.2991L19.5045 10.2055H10.1133C9.6288 10.2055 9.16718 10.4503 8.84026 10.881L0.915646 21.317C-0.600623 23.6977 1.95853 26.9979 4.39738 24.6172" fill="#3A7DFF"/>
<path d="M2.65551 25.9925C1.91994 25.9925 1.26282 25.6288 0.797284 25.0832C-0.166486 23.9543 -0.266524 22.268 0.552091 20.9816L8.50221 10.5086C8.91413 9.96616 9.50128 9.6544 10.1133 9.6544H19.5045C19.6182 9.6544 19.7274 9.70479 19.8118 9.7969L29.475 20.3203H34.9019C35.1549 20.3203 35.3596 20.5667 35.3596 20.8714C35.3596 21.176 35.1549 21.4225 34.9019 21.4225H29.2991C29.1853 21.4225 29.0761 21.3721 28.9918 21.28L19.3279 10.7574H10.1133C9.75825 10.7574 9.41694 10.9376 9.17763 11.2533L1.25301 21.6893C0.659322 22.6246 0.911707 23.6795 1.43544 24.2944C1.97355 24.9258 2.99617 25.2777 4.10836 24.1897C4.30517 24 4.59286 24.0338 4.7524 24.2716C4.91128 24.5078 4.88121 24.8541 4.68505 25.0462C3.99851 25.717 3.29694 25.9925 2.65551 25.9925Z" fill="#472B29"/>
<path d="M16.6217 14.9905C16.6217 14.9905 18.6564 17.5656 18.9323 19.2897C19.3521 21.92 18.2183 24.4991 15.1518 24.4487C12.0853 24.3983 9.60654 24.196 9.60654 24.196L16.6217 14.9905Z" fill="#2F5DCC"/>
<path d="M1.29419 31.0956L4.15673 24.8636L20.8684 2.30448C21.2411 1.80614 21.7772 1.51958 22.3369 1.51958C22.8273 1.51958 23.2981 1.73765 23.6623 2.13286C24.0552 2.55955 24.286 3.14371 24.3135 3.77982C24.341 4.41593 24.1612 5.02685 23.8068 5.49999L7.12715 28.0166L2.24423 32.1285L1.29419 31.0956Z" fill="#00C2A8"/>
<path d="M22.3382 2.07068C22.7149 2.07068 23.0764 2.23837 23.3563 2.54225C23.9794 3.2193 24.0297 4.37973 23.4642 5.13472L6.82182 27.6001L2.28086 31.4239L1.8709 30.9791L4.53271 25.184L21.2071 2.67609C21.4948 2.29111 21.9074 2.07068 22.3382 2.07068ZM22.3382 0.968506C21.672 0.968506 21.0083 1.29522 20.5271 1.93763L3.78144 24.5424L0.71817 31.2113L2.20894 32.8299L7.43448 28.4299L24.1481 5.86766C25.0497 4.66393 24.97 2.80835 23.9702 1.72271C23.5034 1.21728 22.9195 0.968506 22.3382 0.968506Z" fill="#472B29"/>
<path d="M14.2273 7.65159C14.1194 7.65159 14.0115 7.60593 13.9246 7.51303C13.7349 7.31149 13.7179 6.96352 13.8847 6.73521L18.2707 0.763797C18.7833 0.114303 20.1302 -0.661154 21.6373 0.976359C21.825 1.18026 21.84 1.52823 21.6707 1.75418C21.502 1.98012 21.2123 1.9998 21.0247 1.79433C19.7954 0.4607 18.9794 1.46604 18.9454 1.50855L14.5706 7.46579C14.4797 7.58861 14.3535 7.65159 14.2273 7.65159Z" fill="#472B29"/>
<path d="M1.04507 32.33L1.20265 32.5017L0.965302 32.6276L1.04507 32.33Z" fill="#CECCBE"/>
<path d="M0.827327 31.3522L0.418673 32.874C0.353942 33.1165 0.510866 33.3401 0.699174 33.3401C0.738404 33.3401 0.778943 33.3306 0.819481 33.3086L2.03433 32.6622L0.827327 31.3522Z" fill="#472B29"/>
<path d="M35.1654 33.3015H21.4523C19.1841 33.3015 17.2513 32.6426 14.6889 31.9852L5.99079 28.8574C4.54056 28.3811 3.75856 23.6197 7.70452 23.937C11.6596 24.2542 14.9557 24.4133 14.9557 24.4133C17.1971 24.4928 19.8334 21.794 18.5152 19.1748" fill="#3A7DFF"/>
<path d="M35.1654 33.8534H19.7856C18.6349 33.8534 17.4939 33.6487 16.3935 33.2456L5.85806 29.3848C4.88383 29.0652 4.17768 27.3899 4.38887 25.8736C4.47779 25.2344 4.98126 23.156 7.73526 23.3875C11.6387 23.7 14.9413 23.8614 14.974 23.863C16.1999 23.8795 17.5384 23.0222 18.1262 21.8082C18.3897 21.2642 18.6028 20.414 18.1236 19.4621C17.9928 19.2016 18.0614 18.8622 18.2772 18.7048C18.4956 18.5466 18.7754 18.63 18.9062 18.8898C19.4626 19.9943 19.4659 21.2288 18.9167 22.3632C18.1602 23.9259 16.4831 25.0265 14.9419 24.9643C14.904 24.9628 11.5903 24.8022 7.67445 24.4881C6.29353 24.3849 5.4481 24.9352 5.29118 26.0571C5.14995 27.0695 5.63183 28.1701 6.1111 28.3268L16.6596 32.1922C17.6731 32.5646 18.7251 32.7528 19.785 32.7528H35.1654C35.4184 32.7528 35.6231 32.9992 35.6231 33.3039C35.6231 33.6085 35.4184 33.8534 35.1654 33.8534Z" fill="#472B29"/>
<path d="M13.9474 15.1031C13.9082 15.1031 13.8696 15.0865 13.8382 15.0527L12.4658 13.5687C12.3985 13.4963 12.3932 13.3719 12.4534 13.2908C12.5142 13.2105 12.6175 13.205 12.6842 13.2758L14.0566 14.7598C14.124 14.8323 14.1292 14.9566 14.069 15.0377C14.037 15.081 13.9919 15.1031 13.9474 15.1031Z" fill="#472B29"/>
<path d="M7.73002 28.4039C7.70256 28.4039 7.67575 28.3953 7.6496 28.3787C7.57114 28.326 7.54302 28.2055 7.58683 28.1111C7.81437 27.6222 7.90852 26.9404 7.87452 26.0264C7.8706 25.9177 7.94056 25.8264 8.03014 25.8209C8.12952 25.8004 8.19621 25.9004 8.20079 26.0091C8.23806 26.9987 8.13018 27.7489 7.87191 28.3032C7.84248 28.3677 7.78691 28.4039 7.73002 28.4039Z" fill="#472B29"/>
<path d="M15.5716 16.7555C15.533 16.7555 15.4938 16.739 15.463 16.7059L14.4548 15.6266C14.3868 15.5542 14.3809 15.4306 14.4411 15.3487C14.5012 15.2668 14.6045 15.2589 14.6719 15.3322L15.6801 16.4115C15.7481 16.4839 15.754 16.6075 15.6938 16.6894C15.6611 16.7335 15.6167 16.7555 15.5716 16.7555Z" fill="#472B29"/>
<path d="M33.7217 30.8948H30.7807C30.6904 30.8948 30.6172 30.8067 30.6172 30.698C30.6172 30.5894 30.6904 30.5012 30.7807 30.5012H33.7217C33.8119 30.5012 33.8851 30.5894 33.8851 30.698C33.8851 30.8067 33.8119 30.8948 33.7217 30.8948Z" fill="#472B29"/>
<path d="M28.9297 31.0255H20.7808C19.1874 31.0255 17.4906 30.6484 17.4736 30.6453L15.5402 30.069C15.4526 30.0438 15.399 29.9367 15.4205 29.8305C15.4421 29.7257 15.5304 29.6596 15.6187 29.6872L17.5423 30.2611C17.5495 30.2619 19.2181 30.6327 20.7801 30.6327H28.929C29.0192 30.6327 29.0925 30.7209 29.0925 30.8295C29.0925 30.9381 29.0199 31.0255 28.9297 31.0255Z" fill="#472B29"/>
<path d="M14.0684 29.5321C14.0533 29.5321 14.037 29.5297 14.022 29.5234L12.2487 28.8857C12.1624 28.855 12.1127 28.7448 12.1389 28.6409C12.165 28.5378 12.2566 28.4756 12.3422 28.5086L14.1155 29.1463C14.2018 29.177 14.2515 29.2872 14.2253 29.3911C14.2037 29.4762 14.139 29.5321 14.0684 29.5321Z" fill="#472B29"/>
</svg>
