<svg xmlns="http://www.w3.org/2000/svg" xmlns:xlink="http://www.w3.org/1999/xlink" viewBox="0,0,256,256" width="35px" height="35px" fill-rule="nonzero"><g transform="translate(-35.84,-35.84) scale(1.28,1.28)"><g fill="none" fill-rule="nonzero" stroke="none" stroke-width="1" stroke-linecap="butt" stroke-linejoin="miter" stroke-miterlimit="10" stroke-dasharray="" stroke-dashoffset="0" font-family="none" font-weight="none" font-size="none" text-anchor="none" style="mix-blend-mode: normal"><g transform="scale(2.56,2.56)"><path d="M77,12c-0.55228,0 -1,0.44772 -1,1c0,0.55228 0.44772,1 1,1c0.55228,0 1,-0.44772 1,-1c0,-0.55228 -0.44772,-1 -1,-1z" fill="#e76f51"></path><path d="M50,13c-20.43454,0 -37,16.56546 -37,37c0,20.43454 16.56546,37 37,37c20.43454,0 37,-16.56546 37,-37c0,-20.43454 -16.56546,-37 -37,-37z" fill="#2a9d8f"></path><path d="M83,11c-2.20914,0 -4,1.79086 -4,4c0,2.20914 1.79086,4 4,4c2.20914,0 4,-1.79086 4,-4c0,-2.20914 -1.79086,-4 -4,-4z" fill="#e76f51"></path><path d="M87,22c-1.10457,0 -2,0.89543 -2,2c0,1.10457 0.89543,2 2,2c1.10457,0 2,-0.89543 2,-2c0,-1.10457 -0.89543,-2 -2,-2z" fill="#e76f51"></path><path d="M81,74c-1.10457,0 -2,0.89543 -2,2c0,1.10457 0.89543,2 2,2c1.10457,0 2,-0.89543 2,-2c0,-1.10457 -0.89543,-2 -2,-2zM15,59c-2.20914,0 -4,1.79086 -4,4c0,2.20914 1.79086,4 4,4c2.20914,0 4,-1.79086 4,-4c0,-2.20914 -1.79086,-4 -4,-4z" fill="#264653"></path><path d="M25,85c-1.10457,0 -2,0.89543 -2,2c0,1.10457 0.89543,2 2,2c1.10457,0 2,-0.89543 2,-2c0,-1.10457 -0.89543,-2 -2,-2z" fill="#e76f51"></path><path d="M18.5,49c-1.38071,0 -2.5,1.11929 -2.5,2.5c0,1.38071 1.11929,2.5 2.5,2.5c1.38071,0 2.5,-1.11929 2.5,-2.5c0,-1.38071 -1.11929,-2.5 -2.5,-2.5zM79.5,32c-0.82843,0 -1.5,0.67157 -1.5,1.5c0,0.82843 0.67157,1.5 1.5,1.5c0.82843,0 1.5,-0.67157 1.5,-1.5c0,-0.82843 -0.67157,-1.5 -1.5,-1.5z" fill="#264653"></path><g><path d="M45.191,56.144l-6.343,7.176c-1.079,1.22 -2.942,1.335 -4.162,0.256v0c-1.22,-1.079 -1.335,-2.942 -0.256,-4.162l6.343,-7.176c1.079,-1.22 2.942,-1.335 4.162,-0.256v0c1.219,1.078 1.334,2.942 0.256,4.162z" fill="#d38b5d"></path><path d="M36.636,65.014c-0.859,0 -1.722,-0.301 -2.415,-0.913c-1.507,-1.333 -1.649,-3.644 -0.317,-5.151l6.343,-7.175c1.332,-1.508 3.643,-1.65 5.15,-0.317c1.508,1.333 1.65,3.644 0.317,5.15l-6.343,7.176c-0.719,0.814 -1.725,1.23 -2.735,1.23zM42.983,51.943c-0.623,0 -1.243,0.256 -1.687,0.759l-6.343,7.175c-0.821,0.929 -0.733,2.354 0.196,3.175c0.93,0.822 2.354,0.735 3.174,-0.196l6.343,-7.176c0.821,-0.929 0.733,-2.353 -0.196,-3.174c-0.427,-0.377 -0.958,-0.563 -1.487,-0.563z" fill="#472b29"></path><path d="M50.987,58.311l-6.343,7.176c-1.079,1.22 -2.942,1.335 -4.162,0.256v0c-1.22,-1.079 -1.335,-2.942 -0.256,-4.162l6.343,-7.176c1.079,-1.22 2.942,-1.335 4.162,-0.256v0c1.22,1.079 1.335,2.942 0.256,4.162z" fill="#d38b5d"></path><path d="M42.43,67.183c-0.89,0 -1.739,-0.32 -2.412,-0.915c-0.73,-0.646 -1.165,-1.536 -1.225,-2.51c-0.06,-0.973 0.263,-1.91 0.908,-2.641l6.343,-7.176c0.646,-0.729 1.537,-1.165 2.509,-1.225c0.971,-0.068 1.91,0.263 2.641,0.908c0.731,0.645 1.166,1.536 1.226,2.509c0.061,0.973 -0.263,1.911 -0.908,2.642l-6.343,7.176c-0.646,0.729 -1.537,1.165 -2.51,1.225c-0.076,0.005 -0.153,0.007 -0.229,0.007zM48.781,54.109c-0.047,0 -0.094,0.002 -0.142,0.005c-0.599,0.037 -1.148,0.305 -1.546,0.755l-6.343,7.176c-0.398,0.449 -0.597,1.027 -0.56,1.627c0.037,0.6 0.305,1.149 0.755,1.547c0.45,0.397 1.024,0.592 1.628,0.56c0.6,-0.037 1.149,-0.305 1.547,-0.755l6.343,-7.176c0.398,-0.45 0.597,-1.028 0.56,-1.628c-0.037,-0.599 -0.305,-1.148 -0.755,-1.546c-0.415,-0.366 -0.938,-0.565 -1.487,-0.565z" fill="#472b29"></path><path d="M57.339,59.924l-6.343,7.176c-1.079,1.22 -2.942,1.335 -4.162,0.256v0c-1.22,-1.079 -1.335,-2.942 -0.256,-4.162l6.343,-7.176c1.079,-1.22 2.942,-1.335 4.162,-0.256v0c1.22,1.079 1.334,2.942 0.256,4.162z" fill="#d38b5d"></path><path d="M48.784,68.794c-0.859,0 -1.722,-0.301 -2.415,-0.913c-1.507,-1.333 -1.649,-3.644 -0.317,-5.15l6.343,-7.176c1.332,-1.505 3.642,-1.648 5.15,-0.317c1.507,1.332 1.649,3.643 0.317,5.151l-6.343,7.175c-0.719,0.814 -1.725,1.23 -2.735,1.23zM55.131,55.724c-0.623,0 -1.242,0.256 -1.687,0.759l-6.343,7.176c-0.821,0.928 -0.733,2.353 0.196,3.174c0.929,0.822 2.354,0.734 3.174,-0.196l6.343,-7.175c0.82,-0.93 0.732,-2.354 -0.196,-3.175c-0.427,-0.378 -0.958,-0.563 -1.487,-0.563z" fill="#472b29"></path><path d="M52.452,65.954h24.841v-16.018h-11.992l-26.984,-2.056z" fill="#f4a261"></path><path d="M77.347,50.061h-8.569l-14.98,-13.549h-14.363c-0.741,0 -1.447,0.311 -1.947,0.858l-12.12,13.256c-2.319,3.024 1.595,7.216 5.325,4.192" fill="#f4a261"></path><path d="M28.029,56.565c-1.125,0 -2.13,-0.462 -2.842,-1.155c-1.474,-1.434 -1.627,-3.576 -0.375,-5.21l12.159,-13.303c0.63,-0.689 1.528,-1.085 2.464,-1.085h14.363c0.174,0 0.341,0.064 0.47,0.181l14.779,13.367h8.3c0.387,0 0.7,0.313 0.7,0.7c0,0.387 -0.313,0.7 -0.7,0.7h-8.569c-0.174,0 -0.341,-0.064 -0.47,-0.181l-14.78,-13.366h-14.093c-0.543,0 -1.065,0.229 -1.431,0.63l-12.12,13.256c-0.908,1.188 -0.522,2.528 0.279,3.309c0.823,0.802 2.387,1.249 4.088,-0.133c0.301,-0.241 0.741,-0.198 0.985,0.104c0.243,0.3 0.197,0.74 -0.103,0.984c-1.05,0.852 -2.123,1.202 -3.104,1.202z" fill="#472b29"></path><path d="M49.389,42.59c0,0 3.112,3.271 3.534,5.461c0.642,3.341 -1.092,6.617 -5.782,6.553c-4.69,-0.064 -8.481,-0.321 -8.481,-0.321z" fill="#d38b5d"></path><path d="M25.947,63.047l4.378,-7.916l25.559,-28.655c0.57,-0.633 1.39,-0.997 2.246,-0.997c0.75,0 1.47,0.277 2.027,0.779c0.601,0.542 0.954,1.284 0.996,2.092c0.042,0.808 -0.233,1.584 -0.775,2.185l-25.51,28.601l-7.468,5.223z" fill="#e9c46a"></path><path d="M58.132,26.179v0c0.576,0 1.129,0.213 1.557,0.599c0.953,0.86 1.03,2.334 0.165,3.293l-25.453,28.536l-6.945,4.857l-0.627,-0.565l4.071,-7.361l25.502,-28.59c0.44,-0.489 1.071,-0.769 1.73,-0.769M58.132,24.779c-1.019,0 -2.034,0.415 -2.77,1.231l-25.611,28.713l-4.685,8.471l2.28,2.056l7.992,-5.589l25.562,-28.659c1.379,-1.529 1.257,-3.886 -0.272,-5.265c-0.714,-0.642 -1.607,-0.958 -2.496,-0.958z" fill="#472b29"></path><path d="M45.727,33.268c-0.165,0 -0.33,-0.058 -0.463,-0.176c-0.29,-0.256 -0.316,-0.698 -0.061,-0.988l6.708,-7.585c0.784,-0.825 2.844,-1.81 5.149,0.27c0.287,0.259 0.31,0.701 0.051,0.988c-0.258,0.287 -0.701,0.312 -0.988,0.051c-1.88,-1.694 -3.128,-0.417 -3.18,-0.363l-6.691,7.567c-0.139,0.156 -0.332,0.236 -0.525,0.236z" fill="#472b29"></path><path d="M25.566,64.615l0.241,0.218l-0.363,0.16z" fill="#264653"></path><path d="M25.233,63.373l-0.625,1.933c-0.099,0.308 0.141,0.592 0.429,0.592c0.06,0 0.122,-0.012 0.184,-0.04l1.858,-0.821l-1.846,-1.664z" fill="#472b29"></path><path d="M77.75,65.849h-20.973c-3.469,0 -6.425,-0.837 -10.344,-1.672l-13.303,-3.973c-2.218,-0.605 -3.414,-6.653 2.621,-6.25c6.049,0.403 11.09,0.605 11.09,0.605c3.428,0.101 7.46,-3.327 5.444,-6.654" fill="#f4a261"></path><path d="M77.75,66.55h-23.522c-1.76,0 -3.505,-0.26 -5.188,-0.772l-16.113,-4.904c-1.49,-0.406 -2.57,-2.534 -2.247,-4.46c0.136,-0.812 0.906,-3.452 5.118,-3.158c5.97,0.397 11.021,0.602 11.071,0.604c1.875,0.021 3.922,-1.068 4.821,-2.61c0.403,-0.691 0.729,-1.771 -0.004,-2.98c-0.2,-0.331 -0.095,-0.762 0.235,-0.962c0.334,-0.201 0.762,-0.095 0.962,0.235c0.851,1.403 0.856,2.971 0.016,4.412c-1.157,1.985 -3.722,3.383 -6.079,3.304c-0.058,-0.002 -5.126,-0.206 -11.115,-0.605c-2.112,-0.131 -3.405,0.568 -3.645,1.993c-0.216,1.286 0.521,2.684 1.254,2.883l16.133,4.91c1.55,0.473 3.159,0.712 4.78,0.712h23.523c0.387,0 0.7,0.313 0.7,0.7c0,0.387 -0.313,0.698 -0.7,0.698z" fill="#472b29"></path><g fill="#472b29"><path d="M45.299,42.733c-0.06,0 -0.119,-0.021 -0.167,-0.064l-2.099,-1.885c-0.103,-0.092 -0.111,-0.25 -0.019,-0.353c0.093,-0.102 0.251,-0.109 0.353,-0.019l2.099,1.885c0.103,0.092 0.111,0.25 0.019,0.353c-0.049,0.055 -0.118,0.083 -0.186,0.083z"></path></g><g fill="#472b29"><path d="M35.79,59.628c-0.042,0 -0.083,-0.011 -0.123,-0.032c-0.12,-0.067 -0.163,-0.22 -0.096,-0.34c0.348,-0.621 0.492,-1.487 0.44,-2.648c-0.006,-0.138 0.101,-0.254 0.238,-0.261c0.152,-0.026 0.254,0.101 0.261,0.239c0.057,1.257 -0.108,2.21 -0.503,2.914c-0.045,0.082 -0.13,0.128 -0.217,0.128z"></path></g><g fill="#472b29"><path d="M47.783,44.832c-0.059,0 -0.119,-0.021 -0.166,-0.063l-1.542,-1.371c-0.104,-0.092 -0.113,-0.249 -0.021,-0.353c0.092,-0.104 0.25,-0.114 0.353,-0.021l1.542,1.371c0.104,0.092 0.113,0.249 0.021,0.353c-0.05,0.056 -0.118,0.084 -0.187,0.084z"></path></g><g fill="#472b29"><path d="M75.542,62.792h-4.498c-0.138,0 -0.25,-0.112 -0.25,-0.25c0,-0.138 0.112,-0.25 0.25,-0.25h4.498c0.138,0 0.25,0.112 0.25,0.25c0,0.138 -0.112,0.25 -0.25,0.25z"></path></g><g fill="#472b29"><path d="M68.213,62.958h-12.463c-2.437,0 -5.032,-0.479 -5.058,-0.483l-2.957,-0.732c-0.134,-0.032 -0.216,-0.168 -0.183,-0.303c0.033,-0.133 0.168,-0.217 0.303,-0.182l2.942,0.729c0.011,0.001 2.563,0.472 4.952,0.472h12.463c0.138,0 0.25,0.112 0.25,0.25c0,0.138 -0.111,0.249 -0.249,0.249z"></path></g><g fill="#472b29"><path d="M45.484,61.061c-0.023,0 -0.048,-0.003 -0.071,-0.011l-2.712,-0.81c-0.132,-0.039 -0.208,-0.179 -0.168,-0.311c0.04,-0.131 0.18,-0.21 0.311,-0.168l2.712,0.81c0.132,0.039 0.208,0.179 0.168,0.311c-0.033,0.108 -0.132,0.179 -0.24,0.179z"></path></g></g></g></g></g></svg>