<svg xmlns="http://www.w3.org/2000/svg" viewBox="0 0 3000 2600" width="3000" height="2600"><path fill="#FFF" d="M0 0h3000v2600H0z"/><g transform="translate(413.0 740.0) rotate(0.0 1241.0 788.0) scale(0.9996282607233491 1.0005879088855507)"><svg width="2482.923" height="1575.074" viewBox="0 0 2482.923 1575.074"><clipPath id="a"><path d="M1173.436 380.384c-6.787 21.841-2.282 61.869 18.299 80.079 53.465 47.864 137.774 47.149 137.774 47.149s-12.726 96.027-28.065 149.723c0 0 152.175 186.368 308.874-9.874 0 0-40.533-82.291-60.617-195.184 44.251 3.851 121.111-26.188 123.649-86.87 1.435-34.605-33.348-86.857-70.15-84.656-35.809 2.146-52.858 19.311-86.626 42.582-31.23 21.731-35.202 4.731-44.527-31.964-8.221-32.569-25.271-63.213-38.844-81.038-30.843-40.437-100.641-56.721-148.092-62.388a802.902 802.902 0 0 1-30.512 103.265c-20.912 59.307-65.439 78.233-81.164 129.177z"/></clipPath><clipPath id="b"><path d="M2026.088 1237.45v2.078c0 5.862 0 11.67-.107 17.638v2.664c-.214 15.294-1.176 30.747-2.351 46.041-.481 6.181-1.069 12.256-1.55 18.224-6.199 63.892-18.865 127.838-36.769 183.417-14.552-4.893-53.576-18.319-106.778-36.129 21.189-67.415 34.845-149.813 34.845-233.454l105.122-.586h7.589v.107z"/></clipPath><clipPath id="c"><path d="M1303.061 659.012c-127.603-81.033-389.131-68.305-570.82 338.056 70.972 72.205 331.184 483.321 219.436 511.723l645.214-4.902c88.608-.693 175.132-26.484 249.577-74.39l72.415-46.627-27.79-52.329s188.83-113.065 352.267-182.262c103.382-43.77 196.604-69.988 225.448-38.935 0 0-549.337-703.719-863.634-455.664l-9.842 11.78-281.54 4.113-5.264-5.887c-1.606-1.796-3.433-3.384-5.467-4.676z"/></clipPath><path d="M732.882 996.536c104.16 92.081 330.543 512.203 218.794 512.362-272.932-1.812-218.794-159.171-218.794-512.362zm1311.804 243.365c126.445-60.855 367.579-197.325 424.281-130.768 74.339 87.658-424.281 130.768-424.281 130.768z" fill="#232323"/><path d="M1306.108 660.982C1179.663 577.8 915.389 587.445 732.24 997.068c70.972 72.205 331.184 483.321 219.436 511.723l645.214-4.902c88.608-.693 175.132-26.484 249.577-74.39l72.415-46.627-27.79-52.329s188.83-113.065 352.267-182.262c103.382-43.77 196.604-69.988 225.448-38.935 0 0-549.337-703.719-863.634-455.664z" fill="#2A9D8F"/><path d="M1893.764 1310.097a2.994 2.994 0 0 1-2.118-.875c-.961-.959-96.801-97.194-154.652-215.557a3 3 0 1 1 5.391-2.635c57.414 117.468 152.543 212.99 153.498 213.941a3 3 0 0 1-2.119 5.125zm-435.451-378.093c-4.81 0-8.711 3.89-8.711 8.686s3.901 8.686 8.711 8.686 8.711-3.89 8.711-8.686c.053-4.796-3.901-8.686-8.711-8.686zm-4.703 78.973c-5.184 0-9.406 4.21-9.406 9.379s4.222 9.379 9.406 9.379 9.406-4.21 9.406-9.379-4.222-9.379-9.406-9.379z" fill="#fff"/><path d="M1298.5 52.692c18.263-13.393 55.039-23.134 78.046-3.024 39.975-73.484 141.196-43.167 143.547 19.233 82.943-40.552 155.251 57.498 112.604 117.286-15.605 21.955-43.609 68.795-40.884 111.798-38.318 9.006-121.155 81.797-121.155 81.797s-123.506-182.031-179.888-212.086c-42.191-44.386-22.01-93.196 7.73-115.005z" fill="#232323"/><path d="M1182.121 392.731c-6.573 21.155-.107 46.254 19.827 63.892 51.786 46.36 133.446 45.668 133.446 45.668s-14.43 106.682-29.287 158.691c0 0 147.395 182.617 299.172-7.46 0 0-44.518-98.636-63.971-207.982 42.861 3.73 117.307-25.365 119.765-84.141 1.39-33.518-27.042-67.303-62.688-65.171-34.684 2.078-51.198 18.704-83.905 41.245-30.249 21.049-34.096 4.583-43.128-30.96-7.963-31.546-24.477-61.228-37.624-78.493-29.874-39.167-97.479-54.94-143.44-60.428a777.722 777.722 0 0 1-29.554 100.021c-20.255 57.444-63.383 75.775-78.614 125.12z" fill="#fff"/><g clip-path="url(#a)"><path d="M1299.579 682.846a3 3 0 0 1-2.732-4.237c15.026-33.24 32.099-151.841 35.111-173.368-6.967-.194-23.731-1.124-44.48-5.463-24.892-5.204-60.283-16.528-87.53-40.92-19.776-17.498-27.903-43.808-20.691-67.018 7.667-24.84 22.03-41.759 37.235-59.671 15.389-18.129 31.301-36.874 41.415-65.557 12.041-32.563 21.946-66.086 29.455-99.678a2.996 2.996 0 0 1 3.283-2.324c40.471 4.833 113.185 19.262 145.47 61.588 13.061 17.152 29.94 47.063 38.147 79.578l.25.983c4.986 19.63 8.589 33.813 15.809 36.506 4.637 1.734 11.978-.973 22.447-8.258 5.608-3.864 10.67-7.506 15.566-11.027 23.386-16.821 40.283-28.976 69.873-30.748 16.527-1.006 32.587 5.298 45.219 17.7 13.684 13.436 21.403 32.348 20.646 50.589-.862 20.615-10.517 39.597-27.919 54.894-26.135 22.974-64.708 33.409-91.21 32.356 19.504 106.223 62.634 202.543 63.072 203.515l8.589 19.03a3 3 0 1 1-5.469 2.469l-8.589-19.03c-.447-.99-44.895-100.231-64.19-208.69a2.998 2.998 0 0 1 .74-2.55 2.977 2.977 0 0 1 2.474-.964c25.212 2.197 64.439-7.627 90.622-30.642 16.373-14.393 25.082-31.429 25.885-50.637.688-16.573-6.361-33.792-18.855-46.059-11.405-11.199-25.843-16.871-40.656-15.993-27.855 1.67-43.32 12.793-66.728 29.631-4.92 3.539-10.007 7.198-15.653 11.089-12.534 8.722-21.162 11.484-27.96 8.947-10.165-3.792-13.889-18.455-19.527-40.65l-.251-.987c-7.987-31.642-24.403-60.736-37.103-77.415-31.229-40.942-105.419-54.72-138.724-58.937-7.493 32.965-17.268 65.836-29.069 97.752-10.466 29.684-26.743 48.858-42.484 67.401-14.796 17.43-28.771 33.894-36.078 57.563-6.514 20.965.924 44.813 18.949 60.76 50.31 45.039 130.629 44.938 131.434 44.915.854-.019 1.7.363 2.275 1.017s.839 1.523.722 2.386c-.777 5.746-19.23 141.172-36.053 178.387a3 3 0 0 1-2.735 1.766z" fill="#232323"/></g><path d="M1409.146 286.049c-9.246-4.316-31.852-13.802-51.198-29.681-2.619-2.238-6.52-1.918-8.765.639l-.16.16c-5.718 7.034-12.88 19.983 1.764 29.095 17.903 11.19 50.61 12.043 59.268 5.116a3.379 3.379 0 0 0 .481-4.583 11.558 11.558 0 0 0-1.389-.746zm-129.064-48.971c9.62 3.41 17.209 4.316 35.646 6.181 3.42.266 6.039 3.251 5.772 6.714v.213c-.802 9.006-7.161 16.839-21.537 15.294-16.193-1.758-23.301-15.56-24.37-24.992-.16-1.812 1.229-3.464 3.046-3.624.641.107 1.015.107 1.443.213zm141.088 240.328c-31.371 20.409-83.424 24.779-85.776 24.992-.214 1.758-3.794 27.923-9.139 60.109 1.069-.053 2.138-.107 3.26-.16 86.951-6.181 100.579-76.521 91.654-84.941z" fill="#232323"/><path d="M1326.256 565.506a3 3 0 0 1-2.959-3.491c5.347-32.201 8.887-58.061 9.12-59.979a3 3 0 0 1 2.708-2.626l.138-.013c5.525-.491 54.831-5.354 84.272-24.507a3 3 0 0 1 3.695.332c4.474 4.221 4.369 16.22-.254 29.18-5.178 14.518-15.196 28.079-28.208 38.188-17.04 13.238-38.921 20.892-65.038 22.748l-3.325.163a2.46 2.46 0 0 1-.148.004zm11.797-60.348c-.967 7.071-3.983 28.31-8.229 54.159 64.021-4.731 83.156-44.754 87.5-56.931 3.537-9.915 3.628-17.252 2.743-20.753-28.1 16.913-69.34 22.24-82.014 23.524z" fill="#232323"/><path d="M2363.347 1097.066c37.596 46.1 116.577 184.355 116.577 296.517 0 80.145-39.12 151.284-162.786 174.464-167.916 31.384-468.785-130.807-603.047-136.523-81.928 56.325-187.584-5.968-172.727-41.458 0 0-32.814-17.851-26.721-47.533 0 0-38.799-34.104 5.986-71.139 0 0-239.53 11.563-81.767-44.495 190.042-67.676 471.632-16.359 570.447 5.009 4.958.824 35.478 8.392 35.593 8.42 59.094-93.659 181.709-149.057 318.447-143.261z" fill="#fff"/><path d="M2269.994 1575.06c-97.032 0-221.686-42.507-333.623-80.677-86.305-29.43-167.855-57.237-221.418-59.817-32.5 21.992-65.712 24.07-87.931 21.912-26.219-2.547-52.49-12.697-70.274-27.151-15.271-12.412-22.204-26.382-19.014-37.931-7.444-4.686-30.631-21.578-26.337-47.809-3.95-3.935-15.617-17.079-15.35-34.835.18-11.934 5.701-23.354 16.436-34.034-11.93.413-35.062 1.001-58.219.408-61.308-1.568-70.707-9.557-72.045-16.341-1.283-6.502 3.881-16.323 55.636-34.714 187.314-66.704 462.378-18.814 572.017 4.889 4.325.737 24.899 5.777 33.655 7.938 29.366-45.664 74.355-83.058 130.248-108.232 56.603-25.494 122.2-37.462 189.698-34.597a3 3 0 0 1 2.198 1.101c17.441 21.387 46.972 66.733 72.798 124.15 20.279 45.087 44.454 111.919 44.454 174.263 0 44.506-12.012 81.683-35.701 110.499-27.493 33.443-71.074 55.957-129.532 66.914-14.927 2.79-30.904 4.064-47.696 4.064zm-555.904-146.536c.042 0 .085 0 .127.003 54.409 2.316 136.83 30.422 224.091 60.177 130.607 44.538 278.642 95.014 378.278 76.395 106.392-19.942 160.337-77.648 160.337-171.516 0-107.021-74.441-243.157-115.054-293.574-135.394-5.35-255.779 48.96-314.433 141.919a2.991 2.991 0 0 1-3.235 1.317l-.221-.055c-14.768-3.652-31.761-7.757-35.166-8.323a7.062 7.062 0 0 1-.142-.026c-109.095-23.592-382.909-71.314-568.807-5.115-50.933 18.099-52.053 26.415-51.76 27.898.325 1.646 5.046 9.935 66.284 11.505 32.894.841 65.766-.716 66.093-.73a2.985 2.985 0 0 1 2.942 1.912 3 3 0 0 1-.885 3.396c-13.395 11.077-20.29 22.882-20.492 35.087-.301 18.118 14.429 31.358 14.578 31.49a3.007 3.007 0 0 1 .955 2.854c-5.566 27.117 24.91 44.127 25.219 44.296a3.003 3.003 0 0 1 1.331 3.792c-3.934 9.397 2.198 21.9 16.403 33.446 28.034 22.784 94.051 44.123 151.857 4.382a2.997 2.997 0 0 1 1.7-.528z" fill="#232323"/><path d="M2416.336 1096.139c-43.687 2.929-106.213 23.875-172.977 52.142-94.282 39.917-197.013 94.433-267.071 133.421 0 0 3.197-175.834 157.385-237.32 162.618-64.848 282.663 51.757 282.663 51.757z" fill="#2A9D8F"/><path d="M2026.088 1237.45v2.078c0 5.862 0 11.67-.107 17.638v2.664c-.214 15.294-1.176 30.747-2.351 46.041-.481 6.181-1.069 12.256-1.55 18.224-6.199 63.892-18.865 127.838-36.769 183.417-14.552-4.893-53.576-18.319-106.778-36.129 21.189-67.415 34.845-149.813 34.845-233.454l105.122-.586h7.589v.107z" fill="#232323"/><ellipse cx="1968.269" cy="1261.687" fill="#232323" rx="67.573" ry="97.684" transform="matrix(.15624484 -.98771836 .98771836 .15624484 414.554 3008.658)"/><ellipse cx="1970.289" cy="1251.42" fill="#fff" rx="57.984" ry="94.805" transform="matrix(.15691712 -.98761177 .98761177 .15691712 425.207 3000.938)"/><path d="M1985.173 1313.609c-8.021 0-16.252-.653-24.538-1.974-25.546-4.073-48.626-14.02-64.989-28.006-16.773-14.339-24.566-31.247-21.942-47.611 2.625-16.363 15.315-30.004 35.734-38.411 19.92-8.201 44.961-10.476 70.504-6.402 25.545 4.073 48.625 14.019 64.989 28.006 16.774 14.338 24.566 31.247 21.942 47.61s-15.314 30.005-35.733 38.411c-13.459 5.542-29.257 8.377-45.967 8.377zm-105.544-76.642c-2.28 14.222 4.793 29.173 19.917 42.101 15.535 13.279 37.565 22.74 62.035 26.642 8.052 1.284 15.972 1.897 23.6 1.897 39.728.002 71.742-16.621 75.77-41.735 2.281-14.222-4.792-29.173-19.916-42.101-15.535-13.278-37.566-22.74-62.035-26.641-49.991-7.971-94.568 9.9-99.37 39.837z" fill="#232323"/><path d="m1352.069 1.545.962-1.545c.588 1.066 1.283 1.972 1.977 3.037z" fill="#9b3c82"/><path d="M908.228 1490.354c-74.446 38.048-175.345-18.278-216.924-72.152-30.569-39.593-109.718-141.639-174.17-219.066-17.476-20.889-33.722-40.072-47.831-55.633-62.528-69.381-143.6-120.217-234.56-143.451-6.52-1.705-13.147-2.878-19.827-3.624h-.214c-4.275-.48-8.604-.959-12.933-1.066h-.214l-.107.107c-3.153 2.718-66.055 55.579-117.681 12.15-.107-.107-.267-.213-.374-.32-1.283-1.066-2.565-2.238-3.848-3.41a69.133 69.133 0 0 1-7.161-7.62c-.481-.48-.802-1.066-1.283-1.545-.053.213-.107.373-.107.586 0 .107-.053.213-.107.373-17.476 62.4-64.826 109.24-67.284 33.198-6.199-189.651 36.234-271.288 88.234-300.277 69.369-38.58 193.088-27.55 262.029 2.824 77.438 33.891 167.917 82.703 255.082 150.272 101.488 78.706 199.234 197.325 232.529 261.643 78.133 150.858 136.012 311.574 66.75 347.01z" fill="#fff"/><path d="M854.161 1505.899c-25.288 0-49.156-6.814-67.845-14.369-37.842-15.298-75.158-42.692-97.387-71.495-39.111-50.655-113.737-146.464-174.1-218.98-16.166-19.322-33.143-39.429-47.748-55.535-63.591-70.561-144.186-119.854-233.08-142.561-6.07-1.587-12.541-2.773-19.253-3.53h-.046c-.112 0-.223-.006-.334-.019-3.829-.43-7.779-.873-11.732-1.019-5.54 4.584-37.098 29.299-73.064 29.304-15.672.002-32.173-4.688-47.735-17.78-.036-.03-.071-.062-.106-.094a7.065 7.065 0 0 1-.312-.262c-1.306-1.088-2.605-2.274-3.862-3.424a72.67 72.67 0 0 1-5.101-5.151c-10.894 35.384-33.158 70.269-51.563 70.272-.572 0-1.136-.033-1.7-.102-11.474-1.388-17.729-15.578-18.588-42.177-2.887-88.327 4.667-159.472 22.452-211.455 15.152-44.285 37.801-75.084 67.319-91.539 68.369-38.025 192.064-29.304 264.699 2.699 93.526 40.931 179.561 91.616 255.71 150.646 100.513 77.95 199.389 197.021 233.355 262.636 54.896 105.99 115.648 246.967 93.323 316.659-5.12 15.983-14.497 27.558-27.871 34.4h-.001c-18.273 9.34-37.222 12.875-55.432 12.875zM214.87 993.429h.046c.111 0 .222.006.333.019 7.057.788 13.871 2.034 20.253 3.703 90.027 22.995 171.65 72.91 236.029 144.345 14.67 16.179 31.693 36.34 47.904 55.716 60.43 72.596 135.107 168.47 174.243 219.158 40.776 52.834 140.158 108.62 213.183 71.313 11.901-6.089 20.275-16.481 24.89-30.889 9.191-28.691 4.074-73.504-15.209-133.191-16.409-50.795-42.561-110.979-77.729-178.879-33.675-65.052-131.836-183.203-231.704-260.652-75.759-58.727-161.367-109.158-254.447-149.895-71.324-31.423-192.561-40.105-259.368-2.95-28.182 15.71-49.904 45.398-64.562 88.239C11.183 870.759 3.736 941.184 6.6 1028.784c.718 22.206 5.57 35.479 13.312 36.415 12.964 1.58 36.28-28.175 48.085-70.325l.029-.099c.038-.302.1-.539.143-.703.262-1.048 1.076-1.912 2.117-2.201 1.04-.291 2.166-.035 2.931.728.392.391.685.781.921 1.095.14.187.272.362.362.452.077.076.149.156.217.241a66.039 66.039 0 0 0 6.85 7.288c1.259 1.15 2.524 2.307 3.741 3.317.041.034.081.069.12.104.124.1.229.188.321.271 49.458 41.535 110.108-9.062 113.66-12.103l.019-.018a3.003 3.003 0 0 1 2.126-.884h.214c4.539.11 9.08.614 13.101 1.065zm-133.219 16.316.041.04-.041-.04zm3.825-4.604.033.033-.033-.033z" fill="#232323"/><path d="M111.831 1006.539c-13.496 0-27.417-2.556-41.323-8.647a3 3 0 1 1 2.408-5.496c60.313 26.418 121.34-17.507 141.446-42.918 3.408-4.308 4.219-8.716 2.115-11.504-2.291-3.038-9.157-4.858-20.968.01a3 3 0 1 1-2.287-5.547c12.703-5.237 23.187-4.517 28.044 1.924 3.825 5.071 2.982 12.29-2.2 18.84-16.436 20.773-59.087 53.339-107.236 53.339z" fill="#232323"/><g clip-path="url(#b)"><path d="M1983.035 1334.456c-.353 0-.706-.002-1.059-.004-7.879 0-16.059-.596-24.291-1.77-18.515-2.578-36.299-8.168-51.421-16.162a3 3 0 1 1 2.804-5.305c14.513 7.672 31.614 13.041 49.455 15.525 7.962 1.136 15.857 1.711 23.475 1.711 14.843.06 29.318-2.074 43.006-6.475a3 3 0 1 1 1.836 5.712c-13.969 4.49-28.702 6.766-43.805 6.766z" fill="#fff"/></g><path d="M1978.69 1254.42c-.13 0-.26-.009-.39-.025l-59.754-7.842a3 3 0 0 1 .781-5.949l56.69 7.439 3.745-36.953a3.011 3.011 0 0 1 3.287-2.682 3 3 0 0 1 2.683 3.287l-4.056 40.027a3.003 3.003 0 0 1-2.985 2.697zm-458.06 19.975a3 3 0 0 1-1.484-5.611c42.782-24.28 84.836-14.209 85.256-14.104a3 3 0 0 1-1.45 5.823c-.393-.095-40.421-9.443-80.844 13.5a2.994 2.994 0 0 1-1.478.392zm-6.725 71.025a3 3 0 0 1-2.416-4.775c11.798-16.067 33.034-26.473 63.117-30.927a250.078 250.078 0 0 1 46.652-2.106 3 3 0 0 1 2.852 3.142c-.081 1.654-1.491 2.947-3.142 2.851a243.802 243.802 0 0 0-45.507 2.053c-28.417 4.208-48.321 13.811-59.136 28.539a2.995 2.995 0 0 1-2.42 1.225zm27.558 46.64a3.001 3.001 0 0 1-2.302-4.922c13.439-16.103 32.184-23.564 45.542-26.989 18.206-4.7 37.643-5.078 56.207-1.093a3 3 0 0 1-1.26 5.867c-17.657-3.791-36.14-3.433-53.452 1.036-12.508 3.207-30.017 10.149-42.43 25.022a2.993 2.993 0 0 1-2.305 1.078zm173.038 42.482a3.26 3.26 0 0 1-.404-.026c-13.669-1.839-26.009-4.983-36.896-7.758-22.969-5.855-44.664-11.39-72.189-4.109a3 3 0 1 1-1.534-5.801c29.032-7.675 51.46-1.957 75.206 4.096 10.729 2.734 22.889 5.833 36.213 7.625a3 3 0 0 1-.396 5.974zm576.714-106.699c-.456 0-.918-.104-1.353-.325-68.948-34.927-152.432-66.776-235.075-89.682a3 3 0 1 1 1.602-5.781c83.014 23.008 166.892 55.01 236.183 90.111a3 3 0 0 1-1.358 5.677z" fill="#232323"/><path d="M1482.182 1081.988c-.145 0-.291-.01-.438-.031-78.13-11.418-72.299-61.853-58.213-183.7 5.753-49.771 10.231-100.114 14.182-144.531.657-7.384 1.304-14.656 1.945-21.802a3 3 0 0 1 5.976.537c-.641 7.143-1.288 14.414-1.944 21.796-3.954 44.454-8.436 94.839-14.199 144.689-14.006 121.162-19.247 166.498 53.121 177.073a3 3 0 0 1-.43 5.968z" fill="#fff"/><g fill="#232323"><path d="M1542.623 448.719c-.102 0-.205-.005-.309-.016-10.073-1.03-19.913-3.677-29.248-7.866a3 3 0 0 1 2.457-5.475c8.749 3.928 17.967 6.407 27.401 7.372a3 3 0 0 1-.302 5.984zm-12.219-61.193a3.001 3.001 0 0 1-2.598-4.497c31.965-55.543 82.905-44.074 88.609-42.583 1.63.295 2.676 1.851 2.381 3.48-.295 1.632-1.894 2.712-3.523 2.412a5.85 5.85 0 0 1-.375-.088c-5.249-1.372-52.146-11.912-81.891 39.771a2.998 2.998 0 0 1-2.603 1.505zm-237.77-72.589a2.99 2.99 0 0 1-2.215-.976c-8.261-9.033-11.618-15.708-10.885-21.645.93-7.53 8.252-12.372 16.73-17.978 19.027-12.58 18.474-24.143 18.466-24.258-.111-1.636 1.11-3.08 2.744-3.215a2.978 2.978 0 0 1 3.231 2.676c.059.606 1.195 15.04-21.132 29.803-8.395 5.551-13.533 9.243-14.084 13.707-.485 3.93 2.575 9.444 9.358 16.86a3 3 0 0 1-2.213 5.024zm-16.454 38.77c7.513 9.345 21.218 13.119 32.81 11.049 11.869-2.32 22.295-11.247 25.463-23.117.739-2.605 4.616-1.893 4.374.809-1.483 14.696-14.286 26.461-28.475 29.165-7.307 1.367-14.655.456-21.365-2.071-6.713-2.555-13.037-7.007-16.559-13.44-1.266-2.423 2.103-4.561 3.752-2.395zM71.103 997.725a3 3 0 0 1-2.898-3.784c16.567-61.272 30.093-114.492 43.856-172.561a2.997 2.997 0 0 1 3.611-2.228 3 3 0 0 1 2.227 3.61c-13.778 58.133-27.318 111.409-43.902 172.744a3.002 3.002 0 0 1-2.894 2.218z"/><path d="M369.139 916.415c-30.706 0-55.356-6.936-79.536-13.738-17.587-4.948-34.199-9.621-52.913-11.69-26.313-2.907-55.841 3.745-79.568 9.092-26.317 5.931-45.331 10.216-53.733 1.803-3.943-3.947-4.904-10.086-2.936-18.766 10.616-46.842 96.293-103.635 172.97-114.657a3 3 0 0 1 .854 5.939c-35.835 5.151-75.58 20.891-109.043 43.183-32.286 21.508-54.315 46.503-58.929 66.861-1.455 6.419-1.007 10.859 1.33 13.2 6.063 6.07 25.576 1.675 48.168-3.417 24.164-5.444 54.237-12.224 81.546-9.201 19.205 2.123 36.832 7.082 53.879 11.877 41.175 11.584 83.752 23.563 156.241-.391a3 3 0 1 1 1.883 5.697c-31.538 10.421-57.528 14.207-80.212 14.208z"/><path d="M123.931 954.217c-14.425 0-28.112-2.065-39.991-6.186a3 3 0 0 1-1.852-3.817 2.998 2.998 0 0 1 3.817-1.851c21.651 7.508 49.755 7.818 77.107.854 33.419-8.51 64.425-27.35 89.665-54.481a2.998 2.998 0 0 1 4.24-.153 2.999 2.999 0 0 1 .153 4.239c-26.026 27.978-58.039 47.415-92.577 56.21-13.588 3.46-27.384 5.185-40.562 5.185zm77.519 44.253a3 3 0 0 1-1.907-5.318c7.569-6.225 8.604-15.057 5.991-18.402-2.033-2.605-6.413-1.811-11.718 2.123a3.001 3.001 0 0 1-3.573-4.82c9.711-7.197 16.709-5.233 20.019-.996 4.834 6.189 3.212 18.407-6.908 26.73a2.988 2.988 0 0 1-1.904.683z"/></g><g clip-path="url(#c)" fill="#fff"><path d="M1345.693 894.507a31.44 31.44 0 0 1-4.044-.26c-19.755-2.557-35.658-23.894-44.78-60.08-17.658-70.056-4.51-126.13 7.09-175.604.713-3.04 1.422-6.064 2.12-9.074a3 3 0 1 1 5.844 1.356c-.699 3.015-1.409 6.044-2.124 9.089-12.003 51.191-24.416 104.127-7.114 172.767 8.478 33.634 22.588 53.378 39.732 55.596 17.276 2.248 36.918-14.13 53.897-44.898 19.124-34.654 32.784-70.25 42.991-112.02a2.999 2.999 0 1 1 5.828 1.424c-10.335 42.3-24.179 78.363-43.565 113.494-17.268 31.291-36.955 48.211-55.876 48.211z"/><path d="M1526.985 894.477c-14.979 0-35.813-9.709-56.312-51.305-18.484-37.508-28.052-71.665-31.023-110.753a3 3 0 0 1 2.764-3.219c1.649-.137 3.093 1.111 3.219 2.764 2.911 38.288 12.294 71.768 30.423 108.556 16.208 32.891 35.425 49.856 54.103 47.781 23.231-2.585 44.253-33.839 56.235-83.604 11.633-48.315 15.334-119.196 18.037-170.952a2.995 2.995 0 0 1 3.152-2.84 3 3 0 0 1 2.84 3.152c-3.391 64.919-7.333 126.927-18.196 172.044-12.787 53.11-35.168 85.244-61.405 88.163-1.23.137-2.511.213-3.837.213z"/></g><path d="M1406.033 95.611a3.001 3.001 0 0 1-2.975-2.639c-.562-4.635-4.513-28.525-27.19-43.817a3 3 0 0 1 3.355-4.975c24.216 16.329 28.926 40.922 29.792 48.069a3 3 0 0 1-2.982 3.361z" fill="#fff"/></svg></g><g transform="translate(1386.0 300.0) rotate(0.0 552.5 392.5) scale(0.9994907571979162 0.999518703095834)"><svg width="1105.563" height="785.378" viewBox="0 0 1105.563 785.378"><path d="M896.868 772.313c122.082-36.713 8.341-106.473-153.495-172.142-16.918-6.9-34.43-13.715-52.299-20.431-3.445 24.579-5.57 39.957-5.57 39.957-1.226 7.445-2.328 14.78-3.424 21.998-81.88 2.383-265.949-32.797-334.297-102.334 2.291-5.393 12.174-29.389 27.715-64.464-15.742-4.724-30.102-8.903-42.611-12.514-34.397-9.957-55.256-15.779-55.373-15.785-42.246-12.729-182.561-65.263-236.989-57.171-223.628 32.987 536.605 476.994 856.344 382.887z" fill="#E76F51"/><path d="M347.783 539.36c68.466 69.544 252.534 104.724 334.297 102.334 1.096-7.218 2.315-14.546 3.424-21.998 0 0 2.118-15.261 5.57-39.957-110.431-41.765-232.922-80.19-315.694-104.85-15.423 35.082-25.3 58.961-27.597 64.471z" fill="#9b3c82"/><path d="M347.783 539.36c68.466 69.544 252.534 104.724 334.297 102.334 1.096-7.218 2.315-14.546 3.424-21.998 0 0 2.118-15.261 5.57-39.957 2.492-17.823 5.713-40.419 9.313-65.693 1.713-12.114 3.569-24.69 5.333-37.74 15.672-109.363 35.389-243.508 39.499-256.431 12.317 18.036 17.945 323.149 177.193 284.337l181.063-57.235a4.681 4.681 0 0 0 1.296-6.502 4.7 4.7 0 0 0-3.773-2.082L898.98 415.388C889.489 345.041 861.545 15.366 734.629.057 621.94-4.271 487.607 237.411 410.301 398.96c-5.435 11.326-10.492 22.203-15.284 32.507-7.317 15.684-13.873 30.353-19.631 43.305-15.429 35.199-25.306 59.078-27.604 64.588z" fill="#E76F51"/><path d="M347.783 539.36C450.474 656.879 613.874 663.126 682.08 641.694c1.096-7.218 2.315-14.546 3.424-21.998 0 0 2.118-15.261 5.57-39.957 2.492-17.823 5.713-40.419 9.313-65.693a730.357 730.357 0 0 1-305.376-82.462c-7.317 15.684-13.873 30.353-19.631 43.305-15.423 35.082-25.3 58.961-27.597 64.471z" fill="#232323"/></svg></g><g transform="translate(126.0 2177.0) rotate(0.0 183.5 44.0) scale(2.052951607399576 2.069760331161653)"><svg width="178.767" height="42.517" viewBox="0 0 178.767 42.517"><ellipse cx="89.383" cy="21.259" fill="#232323" rx="89.383" ry="21.259"/></svg></g><g transform="translate(422.0 244.0) rotate(0.0 290.0 795.5) scale(0.9938041451913587 0.9948774130936122)"><svg width="583.616" height="1599.192" viewBox="0 0 583.616 1599.192"><path d="M67.065 1494.211c5.548 5.438 14.173 12.536 24.506 16.385a471.162 471.162 0 0 0-8.539 56.084c-1.044 12.238-6.346 3.402-35.366 32.513a859.619 859.619 0 0 1 19.399-104.982z" fill="#232323"/><path d="m284.447 1190.639-146.339 88.312L3 1069.958c30.402-128.351 32.558-130.719 60.01-191.624l98.353 70.943-86.669-108.726c27.453-73.762 78.388-170.533 137.377-272.04l70.901 102.41s-14.747-101.395-28.474-173.578C403.333 251.581 579.96 3 579.96 3c7.827 230.422-55.699 511.824-121.155 728.261l-94.156 109.967 67.724-27.858c-69.426 200.872-147.927 377.27-147.927 377.27z" fill="#fff"/><g fill="#232323"><path d="M138.111 1281.95a2.998 2.998 0 0 1-2.522-1.371L.481 1071.587a3 3 0 0 1-.4-2.32c29.315-123.763 32.487-130.789 57.177-185.478l3.018-6.688a3 3 0 0 1 4.49-1.2l80.634 58.161-73.051-91.642a3 3 0 0 1-.466-2.916c24.541-65.939 70.834-157.622 137.594-272.502a3.001 3.001 0 0 1 2.475-1.491 3.04 3.04 0 0 1 2.585 1.29l63.583 91.841c-4.414-29.517-15.864-104.438-26.57-160.74a2.998 2.998 0 0 1 .381-2.114C399.121 252.744 575.748 3.749 577.515 1.263a3 3 0 0 1 5.444 1.635c3.59 105.667-7.562 230.158-33.144 370.017-20.817 113.805-50.47 234.662-88.138 359.214a2.99 2.99 0 0 1-.593 1.083l-86.05 100.5 56.198-23.117a3 3 0 0 1 3.977 3.754c-68.674 198.696-147.236 375.745-148.021 377.51a3.004 3.004 0 0 1-1.191 1.349l-146.339 88.312a2.988 2.988 0 0 1-1.547.432zM6.214 1069.404l132.834 205.475 143.039-86.32c5.957-13.475 79.683-181.109 145.273-369.883l-61.569 25.326a3 3 0 0 1-3.42-4.726l93.745-109.487c48.377-160.068 127.65-463.946 121.114-717.724-30.227 42.904-186.771 266.668-319.569 485.847 13.522 71.354 28.134 171.566 28.281 172.576a3.002 3.002 0 0 1-1.87 3.224 3.002 3.002 0 0 1-3.565-1.084l-68.211-98.525C147.512 685.86 102.379 775.292 78.101 840.009l85.61 107.397a3 3 0 0 1-4.101 4.302l-95.374-68.793-1.508 3.342c-24.397 54.041-27.602 61.135-56.512 183.146z"/><path d="M137.654 1328.351c86.329-349.638 288.027-818.941 292.111-828.415-4.878 9.248-257.284 483.515-333.63 884.131z"/></g></svg></g><g transform="translate(481.0 1919.0) rotate(0.0 20.0 36.5) scale(1.0233581497684652 0.9887445652910024)"><svg width="39.087" height="73.831" viewBox="0 0 39.087 73.831"><path d="M20.833 0c10.476 13.815 19.788 35.844 18.042 53.518a24.926 24.926 0 0 1-2.328 8.339c-5.238 10.081-17.111 14.811-26.539 10.206C.696 67.457-2.796 55.758 2.442 45.552v-.124c0-.124.116-.124.116-.249C15.595 25.888 17.225 15.682 20.833 0z" fill="#232323"/></svg></g><g transform="translate(73.0 1945.0) rotate(0.0 156.0 159.5) scale(0.9977773869105678 0.999335864566495)"><svg width="312.695" height="319.212" viewBox="0 0 312.695 319.212"><g fill="#264653"><path d="M312.695 187.502c0 36.494-15.74 69.363-41.231 93.224-25.49 23.862-60.612 38.483-99.376 38.483h-31.481c-36.414.234-71.537-13.334-98.437-37.781C16.21 257.566 0 224.23 0 187.385c0-36.378 15.74-69.246 41.113-93.108s60.612-38.6 99.376-38.6h31.481c35.24-.234 69.422 12.399 95.97 35.559 27.605 23.979 44.755 58.251 44.755 96.266z"/><path d="M286.735 153.931c0 37.079-17.972 70.532-46.869 94.745s-68.953 39.185-113.12 39.185H90.801c-16.445 0-32.773-2.105-48.631-6.316C16.21 257.683 0 224.347 0 187.502c0-36.378 15.74-69.246 41.113-93.108s60.612-38.6 99.376-38.6h31.481c35.24-.234 69.422 12.399 95.97 35.559 12.216 18.598 18.677 40.354 18.795 62.579z"/><path d="m251.612 83.282-191 1.287c-23.023 0-41.818-18.598-41.818-41.524v-.117c.001-22.926 18.678-41.641 41.701-41.641h.117l191-1.287c23.023 0 41.818 18.598 41.818 41.524v.117c.117 22.926-18.56 41.524-41.583 41.641z"/></g><path d="M277.089 87.902H35.606a3 3 0 1 1 0-6h241.483a3 3 0 1 1 0 6z" fill="#fff"/></svg></g><g transform="translate(609.0 1476.0) rotate(0.0 808.5 414.0) scale(0.999530214617743 0.9997416126749848)"><svg width="1617.76" height="828.214" viewBox="0 0 1617.76 828.214"><path d="M144.972 700.748s292.507-142.342 463.106-142.342 188.72 133.158 188.72 133.158 53.449-126.179 241.438-126.179c193.296 0 343.211 59.508 498.068 134.628 0 .002-1386.207-4.59-1391.332.735z" fill="#fff"/><path d="M144.974 703.748a3 3 0 0 1-2.163-5.08c.212-.221.403-.419.858-.599l-.009-.019c.733-.356 74.333-36.054 167.833-71.281 86.41-32.556 208.008-71.363 296.585-71.363 39.413 0 74.015 7.102 102.847 21.107 23.154 11.248 42.643 26.938 57.927 46.633 18.366 23.668 26.115 47.109 29.152 59.347 6.334-11.473 20.76-33.784 47.068-56.297 21.668-18.543 46.927-33.314 75.076-43.903 35.116-13.209 74.847-19.907 118.088-19.907 89.653 0 176.11 12.846 264.31 39.271 87.273 26.146 167.803 63.028 235.068 95.658a2.998 2.998 0 0 1 .808 4.824c-.882.879-1.451.877-3.573.87-506.019-1.639-1366.29-3.365-1388.78.532-.356.14-.727.207-1.094.207zm427.001-8.572c74.498 0 158.321.061 251.046.183 307.307.404 615.985 1.345 700.077 1.612-165.72-79.549-306.058-128.585-484.862-128.585-96.015 0-155.781 33.799-189.01 62.152-36.016 30.73-49.533 61.888-49.665 62.198a2.99 2.99 0 0 1-3.163 1.8 2.998 2.998 0 0 1-2.572-2.571c-.044-.325-4.748-33.094-29.894-65.371-33.222-42.646-87.115-65.188-155.854-65.188-87.662 0-208.492 38.588-294.42 70.959-69.443 26.161-127.872 52.579-153.483 64.511 8.919-.238 22.637-.447 43.877-.666 35.191-.362 86.722-.633 153.16-.805 59.404-.153 131.217-.229 214.763-.229z" fill="#232323"/><path d="M37.341 772.012h1543.077c20.58.044 37.298-16.66 37.341-37.31v-1.995c.043-20.649-16.604-37.424-37.184-37.468H37.341C16.762 695.196.044 711.9 0 732.55v1.995c-.044 20.649 16.604 37.424 37.184 37.468h.158z" fill="#232323"/><path d="M794.419 828.214c-34.666.009-62.776-28.181-62.785-62.965v-63.031H857.02v62.998c.029 34.733-27.986 62.926-62.602 62.998z" fill="#232323"/><path d="M794.785 692.668S924.199 331.396 808.697 3c103.421 199.093 157.42 386.067-13.911 689.668z" fill="#fff"/><path d="M794.784 695.669a3 3 0 0 1-2.823-4.011c.323-.901 32.482-91.638 50.141-221.226 16.282-119.493 23.213-297.412-36.235-466.437a3 3 0 0 1 5.492-2.378C841.214 59.09 862.1 106.59 877.09 151.101c18.283 54.293 28.319 105.78 30.68 157.405 2.649 57.925-4.251 115.858-21.094 177.112-18.16 66.041-47.363 134.25-89.277 208.524a3 3 0 0 1-2.615 1.525zm28.521-657.274c19.373 65.327 31.105 136.033 34.942 210.755 3.646 71.009.207 145.781-10.22 222.239-11.786 86.419-30 155.666-41.008 192.72 149.105-280.479 98.532-459.282 16.286-625.714z" fill="#232323"/><path d="M798.446 686.791S780.691 303.295 548.954 43.958c171.514 144.546 292.507 296.803 249.492 642.833z" fill="#fff"/><g fill="#232323"><path d="M798.448 689.791c-.039 0-.078 0-.117-.002a3.001 3.001 0 0 1-2.881-2.859c-.044-.957-4.822-97.144-37.788-223.691-30.398-116.688-91.671-283.803-210.943-417.281a3 3 0 0 1 4.17-4.293c49.494 41.712 86.9 77.646 117.72 113.088 37.569 43.203 66.439 86.97 88.26 133.799 24.478 52.532 40.126 108.722 47.839 171.779 8.314 67.976 7.24 142.173-3.284 226.831a3 3 0 0 1-2.976 2.63zM575.889 71.04c42.782 52.981 80.542 113.864 112.524 181.485 30.384 64.243 55.649 134.677 75.091 209.345 21.982 84.418 31.479 155.418 35.393 193.876 31.291-316.387-83.56-462.303-223.009-584.706z"/><path d="M234.623 699.278a3 3 0 0 1-1.081-5.8c2.48-.957 249.555-95.646 382.913-95.646 71.09 0 116.374 25.222 141.844 46.38 27.815 23.107 38.669 46.332 39.117 47.31a3 3 0 1 1-5.453 2.502c-.425-.927-10.722-22.951-37.498-45.196-24.71-20.526-68.711-44.995-138.01-44.995-132.254 0-378.285 94.291-380.754 95.243-.355.137-.72.202-1.079.202z"/><path d="M357.621 707.362a3.001 3.001 0 0 1-.965-5.842c7.567-2.568 186.58-62.913 294.929-62.913 55.794 0 92.021 15.274 112.586 28.088 22.933 14.289 32.228 28.855 32.319 29.001a3 3 0 0 1-5.079 3.195c-.103-.161-8.946-13.795-30.689-27.273-19.876-12.322-54.946-27.01-109.138-27.01-107.362 0-291.156 61.969-293 62.595-.32.108-.645.16-.965.16zm1051.952-3.665c-.316 0-.636-.051-.952-.156-2.707-.905-272.35-90.524-417.327-90.524-74.229 0-121.693 20.151-148.44 37.056-28.608 18.073-40.115 36.288-40.228 36.47a3.009 3.009 0 0 1-4.098 1 2.99 2.99 0 0 1-1.057-4.068c.108-.187 12.171-19.517 42.178-38.474 27.416-17.328 75.981-37.983 151.645-37.983 145.942 0 416.514 89.926 419.23 90.835a3 3 0 0 1-.95 5.846z"/><path d="M1310.503 709.254c-.285 0-.574-.041-.861-.127-2.211-.662-222.618-66.178-351.479-66.178-65.345 0-107.111 17.705-130.642 32.559-24.978 15.764-35.248 31.833-35.348 31.993a3.006 3.006 0 0 1-4.129.954 2.995 2.995 0 0 1-.969-4.118c.105-.171 10.831-17.234 37.244-33.903 24.2-15.275 67.066-33.484 133.844-33.484 129.73 0 350.98 65.766 353.2 66.43a3 3 0 0 1-.859 5.875z"/></g></svg></g></svg>