<svg xmlns="http://www.w3.org/2000/svg"  viewBox="0 0 16 16" width="20px" height="20px"><path d="M13.975,7C13.719,3.645,10.921,1,7.5,1C3.91,1,1,3.91,1,7.5c0,3.421,2.645,6.219,6,6.475V14h1v-0.025	c3.19-0.244,5.731-2.785,5.975-5.975H14V7H13.975z M8,12.861v-1.844c0.456,0.024,0.897,0.078,1.31,0.163	C8.947,12.022,8.482,12.615,8,12.861z M10.291,11.455c0.247,0.091,0.469,0.196,0.674,0.311c-0.368,0.3-0.777,0.55-1.215,0.747	C9.953,12.202,10.132,11.845,10.291,11.455z M7,3.984C6.544,3.96,6.103,3.906,5.69,3.821C6.053,2.978,6.518,2.385,7,2.139V3.984z M7,4.983V7H5.025C5.061,6.175,5.179,5.427,5.36,4.772C5.875,4.886,6.427,4.956,7,4.983z M7,8v2.016	c-0.572,0.027-1.124,0.099-1.639,0.213C5.179,9.574,5.061,8.825,5.025,8H7z M8,4.983C8.573,4.956,9.124,4.885,9.639,4.77	C9.821,5.427,9.939,6.175,9.975,7H8V4.983z M8,3.984V2.139c0.482,0.246,0.946,0.838,1.31,1.68C8.897,3.905,8.456,3.96,8,3.984z M9.751,2.487c0.438,0.197,0.846,0.448,1.215,0.747c-0.205,0.114-0.427,0.22-0.674,0.311C10.132,3.156,9.953,2.798,9.751,2.487z M4.709,3.545C4.462,3.454,4.24,3.348,4.035,3.234c0.368-0.3,0.777-0.55,1.215-0.747C5.047,2.798,4.868,3.156,4.709,3.545z M4.388,4.488C4.179,5.246,4.049,6.094,4.013,7H2.025C2.13,5.848,2.59,4.799,3.296,3.961C3.615,4.165,3.984,4.341,4.388,4.488z M4.013,8c0.036,0.906,0.166,1.754,0.375,2.511c-0.404,0.148-0.775,0.322-1.094,0.526C2.589,10.2,2.13,9.151,2.025,8H4.013z M4.709,11.455c0.159,0.389,0.339,0.747,0.541,1.058c-0.438-0.197-0.847-0.448-1.215-0.747C4.24,11.652,4.462,11.546,4.709,11.455z M5.69,11.181C6.104,11.095,6.545,11.04,7,11.016v1.845C6.518,12.615,6.054,12.023,5.69,11.181z M8,10.017V8h1.975	C9.939,8.825,9.821,9.573,9.64,10.229C9.125,10.114,8.573,10.044,8,10.017z M10.987,7c-0.036-0.906-0.166-1.754-0.375-2.512	c0.404-0.148,0.774-0.323,1.093-0.526C12.411,4.799,12.87,5.849,12.975,7H10.987z M11.704,11.039	c-0.319-0.204-0.688-0.379-1.092-0.527C10.821,9.754,10.951,8.906,10.987,8h1.988C12.87,9.152,12.41,10.201,11.704,11.039z"/></svg>